<?xml version="1.0" standalone="no"?>
<!DOCTYPE svg PUBLIC "-//W3C//DTD SVG 20010904//EN"
 "http://www.w3.org/TR/2001/REC-SVG-20010904/DTD/svg10.dtd">
<svg version="1.0" xmlns="http://www.w3.org/2000/svg"
 width="96.000000pt" height="96.000000pt" viewBox="0 0 96.000000 96.000000"
 preserveAspectRatio="xMidYMid meet">
<metadata>
Created by potrace 1.14, written by Peter Selinger 2001-2017
</metadata>
<g transform="translate(0.000000,96.000000) scale(0.100000,-0.100000)"
fill="#000000" stroke="none">
<path d="M411 803 c-19 -10 -46 -36 -60 -60 l-26 -42 -97 -1 c-64 0 -99 -4
-104 -12 -4 -6 -2 -14 4 -16 9 -3 12 -74 12 -268 l0 -264 340 0 340 0 0 265
c0 170 4 265 10 265 6 0 10 7 10 15 0 12 -18 15 -105 15 -105 0 -105 0 -116
27 -29 78 -130 114 -208 76z"/>
</g>
</svg>
